<svg width="170" height="54" viewBox="0 0 170 54" fill="none" xmlns="http://www.w3.org/2000/svg">
<path d="M0 12C0 5.37258 5.37258 0 12 0H158C164.627 0 170 5.37258 170 12V42C170 48.6274 164.627 54 158 54H0V12Z" fill="#DBA94D"/>
<path d="M32.306 32.21C31.298 32.21 30.4277 31.9907 29.695 31.552C28.967 31.1133 28.4047 30.4997 28.008 29.711C27.616 28.9223 27.42 28.0053 27.42 26.96C27.42 25.9147 27.616 24.9977 28.008 24.209C28.4047 23.4203 28.967 22.8067 29.695 22.368C30.4277 21.9293 31.298 21.71 32.306 21.71C33.314 21.71 34.182 21.9293 34.91 22.368C35.6427 22.8067 36.205 23.4203 36.597 24.209C36.9937 24.9977 37.192 25.9147 37.192 26.96C37.192 28.0053 36.9937 28.9223 36.597 29.711C36.205 30.4997 35.6427 31.1133 34.91 31.552C34.182 31.9907 33.314 32.21 32.306 32.21ZM32.306 30.418C32.9453 30.4273 33.4773 30.2897 33.902 30.005C34.3267 29.7203 34.644 29.3167 34.854 28.794C35.0687 28.2713 35.176 27.66 35.176 26.96C35.176 26.26 35.0687 25.6533 34.854 25.14C34.644 24.6267 34.3267 24.2277 33.902 23.943C33.4773 23.6583 32.9453 23.5113 32.306 23.502C31.6667 23.4927 31.1347 23.6303 30.71 23.915C30.2853 24.1997 29.9657 24.6033 29.751 25.126C29.541 25.6487 29.436 26.26 29.436 26.96C29.436 27.66 29.541 28.2667 29.751 28.78C29.9657 29.2933 30.2853 29.6923 30.71 29.977C31.1347 30.2617 31.6667 30.4087 32.306 30.418ZM38.5754 32L38.5894 21.92H40.5214V28.08L43.0834 24.44H45.4354L42.7054 28.22L45.6174 32H43.1394L40.5214 28.36V32H38.5754ZM48.414 32.21C47.8727 32.21 47.413 32.1073 47.035 31.902C46.6617 31.692 46.377 31.4143 46.181 31.069C45.9897 30.719 45.894 30.334 45.894 29.914C45.894 29.564 45.9477 29.2443 46.055 28.955C46.1623 28.6657 46.335 28.4113 46.573 28.192C46.8157 27.968 47.14 27.7813 47.546 27.632C47.826 27.5293 48.1597 27.4383 48.547 27.359C48.9343 27.2797 49.373 27.205 49.863 27.135C50.353 27.0603 50.892 26.9787 51.48 26.89L50.794 27.268C50.794 26.82 50.6867 26.491 50.472 26.281C50.2573 26.071 49.898 25.966 49.394 25.966C49.114 25.966 48.8223 26.0337 48.519 26.169C48.2157 26.3043 48.0033 26.5447 47.882 26.89L46.16 26.344C46.3513 25.7187 46.7107 25.21 47.238 24.818C47.7653 24.426 48.484 24.23 49.394 24.23C50.0613 24.23 50.654 24.3327 51.172 24.538C51.69 24.7433 52.082 25.098 52.348 25.602C52.4973 25.882 52.586 26.162 52.614 26.442C52.642 26.722 52.656 27.0347 52.656 27.38V32H50.99V30.446L51.228 30.768C50.8593 31.2767 50.4603 31.6453 50.031 31.874C49.6063 32.098 49.0673 32.21 48.414 32.21ZM48.82 30.712C49.17 30.712 49.464 30.6513 49.702 30.53C49.9447 30.404 50.136 30.2617 50.276 30.103C50.4207 29.9443 50.5187 29.8113 50.57 29.704C50.668 29.4987 50.724 29.2607 50.738 28.99C50.7567 28.7147 50.766 28.486 50.766 28.304L51.326 28.444C50.7613 28.5373 50.304 28.6167 49.954 28.682C49.604 28.7427 49.3217 28.7987 49.107 28.85C48.8923 28.9013 48.7033 28.9573 48.54 29.018C48.3533 29.0927 48.2017 29.1743 48.085 29.263C47.973 29.347 47.889 29.4403 47.833 29.543C47.7817 29.6457 47.756 29.76 47.756 29.886C47.756 30.0587 47.798 30.208 47.882 30.334C47.9707 30.4553 48.0943 30.5487 48.253 30.614C48.4117 30.6793 48.6007 30.712 48.82 30.712ZM55.0183 35.36L56.4743 31.356L56.5023 32.532L53.2123 24.44H55.1863L57.3983 30.166H56.9503L59.1483 24.44H61.0523L56.7823 35.36H55.0183ZM60.7755 33.89L60.8875 33.092C61.1115 33.1107 61.2935 33.0733 61.4335 32.98C61.5735 32.8913 61.6692 32.7607 61.7205 32.588C61.7765 32.42 61.7882 32.224 61.7555 32H60.7755V30.096H62.6795V32C62.6795 32.672 62.5232 33.1807 62.2105 33.526C61.8979 33.8713 61.4195 33.9927 60.7755 33.89ZM72.474 32.21C71.466 32.21 70.5956 31.9907 69.863 31.552C69.135 31.1133 68.5726 30.4997 68.176 29.711C67.784 28.9223 67.588 28.0053 67.588 26.96C67.588 25.9147 67.784 24.9977 68.176 24.209C68.5726 23.4203 69.135 22.8067 69.863 22.368C70.5956 21.9293 71.466 21.71 72.474 21.71C73.6313 21.71 74.602 21.997 75.386 22.571C76.1746 23.145 76.73 23.922 77.052 24.902L75.134 25.434C74.9473 24.8227 74.6323 24.349 74.189 24.013C73.7456 23.6723 73.174 23.502 72.474 23.502C71.8346 23.502 71.3003 23.6443 70.871 23.929C70.4463 24.2137 70.1266 24.615 69.912 25.133C69.6973 25.651 69.59 26.26 69.59 26.96C69.59 27.66 69.6973 28.269 69.912 28.787C70.1266 29.305 70.4463 29.7063 70.871 29.991C71.3003 30.2757 71.8346 30.418 72.474 30.418C73.174 30.418 73.7456 30.2477 74.189 29.907C74.6323 29.5663 74.9473 29.0927 75.134 28.486L77.052 29.018C76.73 29.998 76.1746 30.775 75.386 31.349C74.602 31.923 73.6313 32.21 72.474 32.21ZM80.6933 32.21C80.1519 32.21 79.6923 32.1073 79.3143 31.902C78.9409 31.692 78.6563 31.4143 78.4603 31.069C78.2689 30.719 78.1733 30.334 78.1733 29.914C78.1733 29.564 78.2269 29.2443 78.3343 28.955C78.4416 28.6657 78.6143 28.4113 78.8523 28.192C79.0949 27.968 79.4193 27.7813 79.8253 27.632C80.1053 27.5293 80.4389 27.4383 80.8263 27.359C81.2136 27.2797 81.6523 27.205 82.1423 27.135C82.6323 27.0603 83.1713 26.9787 83.7593 26.89L83.0733 27.268C83.0733 26.82 82.9659 26.491 82.7513 26.281C82.5366 26.071 82.1773 25.966 81.6733 25.966C81.3933 25.966 81.1016 26.0337 80.7983 26.169C80.4949 26.3043 80.2826 26.5447 80.1613 26.89L78.4393 26.344C78.6306 25.7187 78.9899 25.21 79.5173 24.818C80.0446 24.426 80.7633 24.23 81.6733 24.23C82.3406 24.23 82.9333 24.3327 83.4513 24.538C83.9693 24.7433 84.3613 25.098 84.6273 25.602C84.7766 25.882 84.8653 26.162 84.8933 26.442C84.9213 26.722 84.9353 27.0347 84.9353 27.38V32H83.2693V30.446L83.5073 30.768C83.1386 31.2767 82.7396 31.6453 82.3103 31.874C81.8856 32.098 81.3466 32.21 80.6933 32.21ZM81.0993 30.712C81.4493 30.712 81.7433 30.6513 81.9813 30.53C82.2239 30.404 82.4153 30.2617 82.5553 30.103C82.6999 29.9443 82.7979 29.8113 82.8493 29.704C82.9473 29.4987 83.0033 29.2607 83.0173 28.99C83.0359 28.7147 83.0453 28.486 83.0453 28.304L83.6053 28.444C83.0406 28.5373 82.5833 28.6167 82.2333 28.682C81.8833 28.7427 81.6009 28.7987 81.3863 28.85C81.1716 28.9013 80.9826 28.9573 80.8193 29.018C80.6326 29.0927 80.4809 29.1743 80.3643 29.263C80.2523 29.347 80.1683 29.4403 80.1123 29.543C80.0609 29.6457 80.0353 29.76 80.0353 29.886C80.0353 30.0587 80.0773 30.208 80.1613 30.334C80.2499 30.4553 80.3736 30.5487 80.5323 30.614C80.6909 30.6793 80.8799 30.712 81.0993 30.712ZM91.9074 32V28.43C91.9074 28.2573 91.8981 28.038 91.8794 27.772C91.8607 27.5013 91.8024 27.2307 91.7044 26.96C91.6064 26.6893 91.4454 26.463 91.2214 26.281C91.0021 26.099 90.6894 26.008 90.2834 26.008C90.1201 26.008 89.9451 26.0337 89.7584 26.085C89.5717 26.1363 89.3967 26.2367 89.2334 26.386C89.0701 26.5307 88.9347 26.7453 88.8274 27.03C88.7247 27.3147 88.6734 27.6927 88.6734 28.164L87.5814 27.646C87.5814 27.0487 87.7027 26.4887 87.9454 25.966C88.1881 25.4433 88.5521 25.021 89.0374 24.699C89.5274 24.377 90.1434 24.216 90.8854 24.216C91.4781 24.216 91.9611 24.3163 92.3344 24.517C92.7077 24.7177 92.9971 24.972 93.2024 25.28C93.4124 25.588 93.5617 25.91 93.6504 26.246C93.7391 26.5773 93.7927 26.8807 93.8114 27.156C93.8301 27.4313 93.8394 27.632 93.8394 27.758V32H91.9074ZM86.7414 32V24.44H88.4354V26.946H88.6734V32H86.7414ZM95.3752 25.714L95.4872 24.916C95.7112 24.9347 95.8932 24.8997 96.0332 24.811C96.1732 24.7177 96.2689 24.587 96.3202 24.419C96.3762 24.2463 96.3879 24.048 96.3552 23.824H95.3752V21.92H97.2792V23.824C97.2792 24.496 97.1229 25.0047 96.8102 25.35C96.4976 25.6953 96.0192 25.8167 95.3752 25.714ZM103.897 32C103.374 32.098 102.861 32.14 102.357 32.126C101.858 32.1167 101.41 32.0303 101.013 31.867C100.621 31.699 100.322 31.4307 100.117 31.062C99.9302 30.7167 99.8322 30.3667 99.8229 30.012C99.8135 29.6527 99.8089 29.2467 99.8089 28.794V22.34H101.713V28.682C101.713 28.976 101.715 29.242 101.72 29.48C101.729 29.7133 101.778 29.9 101.867 30.04C102.035 30.306 102.303 30.4507 102.672 30.474C103.041 30.4973 103.449 30.4787 103.897 30.418V32ZM98.5209 25.91V24.44H103.897V25.91H98.5209ZM109.994 32L107.684 24.426L109.546 24.44L110.918 28.948L112.311 24.44H113.893L115.286 28.948L116.658 24.44H118.52L116.21 32H114.754L113.102 27.072L111.45 32H109.994ZM121.463 32.21C120.921 32.21 120.462 32.1073 120.084 31.902C119.71 31.692 119.426 31.4143 119.23 31.069C119.038 30.719 118.943 30.334 118.943 29.914C118.943 29.564 118.996 29.2443 119.104 28.955C119.211 28.6657 119.384 28.4113 119.622 28.192C119.864 27.968 120.189 27.7813 120.595 27.632C120.875 27.5293 121.208 27.4383 121.596 27.359C121.983 27.2797 122.422 27.205 122.912 27.135C123.402 27.0603 123.941 26.9787 124.529 26.89L123.843 27.268C123.843 26.82 123.735 26.491 123.521 26.281C123.306 26.071 122.947 25.966 122.443 25.966C122.163 25.966 121.871 26.0337 121.568 26.169C121.264 26.3043 121.052 26.5447 120.931 26.89L119.209 26.344C119.4 25.7187 119.759 25.21 120.287 24.818C120.814 24.426 121.533 24.23 122.443 24.23C123.11 24.23 123.703 24.3327 124.221 24.538C124.739 24.7433 125.131 25.098 125.397 25.602C125.546 25.882 125.635 26.162 125.663 26.442C125.691 26.722 125.705 27.0347 125.705 27.38V32H124.039V30.446L124.277 30.768C123.908 31.2767 123.509 31.6453 123.08 31.874C122.655 32.098 122.116 32.21 121.463 32.21ZM121.869 30.712C122.219 30.712 122.513 30.6513 122.751 30.53C122.993 30.404 123.185 30.2617 123.325 30.103C123.469 29.9443 123.567 29.8113 123.619 29.704C123.717 29.4987 123.773 29.2607 123.787 28.99C123.805 28.7147 123.815 28.486 123.815 28.304L124.375 28.444C123.81 28.5373 123.353 28.6167 123.003 28.682C122.653 28.7427 122.37 28.7987 122.156 28.85C121.941 28.9013 121.752 28.9573 121.589 29.018C121.402 29.0927 121.25 29.1743 121.134 29.263C121.022 29.347 120.938 29.4403 120.882 29.543C120.83 29.6457 120.805 29.76 120.805 29.886C120.805 30.0587 120.847 30.208 120.931 30.334C121.019 30.4553 121.143 30.5487 121.302 30.614C121.46 30.6793 121.649 30.712 121.869 30.712ZM127.665 23.39V21.71H129.569V23.39H127.665ZM127.665 32V24.44H129.569V32H127.665ZM136.204 32C135.681 32.098 135.168 32.14 134.664 32.126C134.164 32.1167 133.716 32.0303 133.32 31.867C132.928 31.699 132.629 31.4307 132.424 31.062C132.237 30.7167 132.139 30.3667 132.13 30.012C132.12 29.6527 132.116 29.2467 132.116 28.794V22.34H134.02V28.682C134.02 28.976 134.022 29.242 134.027 29.48C134.036 29.7133 134.085 29.9 134.174 30.04C134.342 30.306 134.61 30.4507 134.979 30.474C135.347 30.4973 135.756 30.4787 136.204 30.418V32ZM130.828 25.91V24.44H136.204V25.91H130.828ZM138.588 32V30.32H140.492V32H138.588ZM138.588 29.48V21.92H140.492V29.48H138.588Z" fill="#1F4B43"/>
</svg>
